<svg width="40" height="40" viewBox="0 0 40 40" fill="none" xmlns="http://www.w3.org/2000/svg">
<path fill-rule="evenodd" clip-rule="evenodd" d="M20 37C29.3888 37 37 29.3888 37 20C37 10.6112 29.3888 3 20 3C10.6112 3 3 10.6112 3 20C3 29.3888 10.6112 37 20 37ZM20 40C31.0457 40 40 31.0457 40 20C40 8.9543 31.0457 0 20 0C8.9543 0 0 8.9543 0 20C0 31.0457 8.9543 40 20 40ZM25.1106 21.5H10V18.5H25.1027L19.6636 13.0607L21.7849 10.9395L30.8492 20.004L21.7849 29.0683L19.6636 26.947L25.1106 21.5Z" fill="black"/>
</svg>
