<?xml version="1.0" encoding="UTF-8"?>
<svg id="_레이어_1" data-name="레이어_1" xmlns="http://www.w3.org/2000/svg" version="1.1" viewBox="0 0 336 62">
  <!-- Generator: Adobe Illustrator 29.0.0, SVG Export Plug-In . SVG Version: 2.1.0 Build 186)  -->
  <defs>
    <style>
      .st0 {
        fill: #d9eaff;
      }
    </style>
  </defs>
  <path class="st0" d="M315.6,17.7h-8.3V6.7h-13.3v11h-8.3v10.7h8.3v30.9h13.3v-30.9h8.3v-10.7Z"/>
  <path class="st0" d="M54.8,16.3c-12.2,0-22.1,9.9-22.1,22.1s9.9,22.1,22.1,22.1,22.1-9.9,22.1-22.1-9.9-22.1-22.1-22.1ZM54.8,48.6c-5.6,0-10.1-4.5-10.1-10.1s4.5-10.1,10.1-10.1,10.1,4.5,10.1,10.1-4.5,10.1-10.1,10.1Z"/>
  <path class="st0" d="M260,16.3c-12.2,0-22.1,9.9-22.1,22.1s9.9,22.1,22.1,22.1,22.1-9.9,22.1-22.1-9.9-22.1-22.1-22.1ZM260,48.6c-5.6,0-10.1-4.5-10.1-10.1s4.5-10.1,10.1-10.1,10.1,4.5,10.1,10.1-4.5,10.1-10.1,10.1Z"/>
  <path class="st0" d="M335.5,51.4c0,4.8-3.9,8.7-8.7,8.7s-8.7-3.9-8.7-8.7,3.9-8.7,8.7-8.7,8.7,3.9,8.7,8.7Z"/>
  <path class="st0" d="M111.6,17.7v23.3c0,1.3-.1,2.8-.7,4-1.1,2.3-3.4,3.9-6.1,3.9s-5.1-1.6-6.1-3.9c-.5-1.2-.6-2.6-.6-3.9v-23.4h-13.8v25.8c0,2.1.3,4.2.8,6.2.5,2,1.4,3.9,2.6,5.4,1.2,1.6,2.8,2.9,4.7,3.9,1.9,1,4.3,1.5,7.1,1.5s2.8-.2,4.1-.6c1.3-.4,2.5-.9,3.6-1.5,1.1-.6,2-1.3,2.8-2.2s1.5-1.7,2-2.7h.2l.8,5.8h12.4V17.7h-13.7Z"/>
  <path class="st0" d="M175.8,27.3c-.5-2-1.4-3.9-2.6-5.4-1.2-1.6-2.8-2.9-4.7-3.9-1.9-1-4.3-1.5-7.1-1.5s-2.8.2-4.1.6c-1.3.4-2.5.9-3.6,1.5-1.1.6-2,1.3-2.8,2.2-.8.8-1.5,1.7-2,2.7h-.2l-.8-5.8h-12.4v41.6h13.7v-23.3c0-1.3.1-2.8.7-4,1.1-2.3,3.4-3.9,6.1-3.9s5.1,1.6,6.1,3.9c.5,1.2.6,2.6.6,3.9v23.4h13.8v-25.8c0-2.1-.3-4.2-.8-6.2h0Z"/>
  <path class="st0" d="M28,16.5s-1.4,0-3.3.3c-8.2,1.3-10.8,7-10.8,7h-.2l-1.1-6H.5v41.6h13.7v-20.1c0-1.5.2-2.6.4-3.2,0-.2,0-.3.2-.5,0,0,0-.2,0-.2,2.7-6.1,13.1-5.6,13.1-5.6v-13.3h0Z"/>
  <path class="st0" d="M217,.4v21.7h-.2c-1.2-1.4-2.8-2.7-4.9-3.9s-4.7-1.7-7.8-1.7-5.7.6-8.2,1.7-4.5,2.8-6.2,4.8c-1.7,2-3,4.3-3.9,7-.9,2.7-1.4,5.4-1.4,8.3s.5,5.7,1.3,8.3c.9,2.7,2.2,5,3.9,7.1,1.7,2,3.8,3.7,6.2,4.9,2.5,1.2,5.2,1.8,8.3,1.8s5.4-.6,7.9-1.7c2.5-1.1,4.4-2.8,5.7-4.9h.2l.7,5.4h11.9V.4h-13.7,0ZM207,48.6c-5.5,0-9.9-4.5-9.9-10.1s4.4-10.1,9.9-10.1,9.9,4.5,9.9,10.1-4.4,10.1-9.9,10.1Z"/>
</svg>