<svg width="336" height="62" viewBox="0 0 336 62" fill="none" xmlns="http://www.w3.org/2000/svg">
<path d="M315.633 17.6917H307.382V6.72241H294.051V17.6917H285.799V28.3698H294.051V59.3039H307.382V28.3698H315.633V17.6917Z" fill="black"/>
<path d="M54.7968 16.3326C42.5656 16.3326 32.6641 26.2341 32.6641 38.4654C32.6641 50.6967 42.5656 60.5982 54.7968 60.5982C67.0281 60.5982 76.9296 50.6967 76.9296 38.4654C76.9296 26.2341 67.0281 16.3326 54.7968 16.3326ZM54.7968 48.5611C49.2313 48.5611 44.7335 44.0633 44.7335 38.4978C44.7335 32.9322 49.2313 28.4345 54.7968 28.4345C60.3624 28.4345 64.8601 32.9322 64.8601 38.4978C64.8601 44.0633 60.3624 48.5611 54.7968 48.5611Z" fill="black"/>
<path d="M260.042 16.3326C247.811 16.3326 237.909 26.2341 237.909 38.4654C237.909 50.6967 247.811 60.5982 260.042 60.5982C272.273 60.5982 282.175 50.6967 282.175 38.4654C282.175 26.2341 272.273 16.3326 260.042 16.3326ZM260.042 48.5611C254.476 48.5611 249.979 44.0633 249.979 38.4978C249.979 32.9322 254.476 28.4345 260.042 28.4345C265.607 28.4345 270.105 32.9322 270.105 38.4978C270.105 44.0633 265.607 48.5611 260.042 48.5611Z" fill="black"/>
<path d="M335.5 51.4086C335.5 56.2299 331.585 60.1452 326.763 60.1452C321.942 60.1452 318.027 56.2299 318.027 51.4086C318.027 46.5873 321.942 42.672 326.763 42.672C331.585 42.672 335.5 46.5873 335.5 51.4086Z" fill="black"/>
<path d="M111.649 17.6917V40.9894C111.649 42.2513 111.52 43.8045 110.97 45.0341C109.902 47.3315 107.572 48.917 104.854 48.917C102.136 48.917 99.7737 47.2992 98.7059 44.9694C98.2205 43.8045 98.0911 42.3484 98.0911 41.1188V17.6917H84.3066V43.4486C84.3066 45.5842 84.5655 47.6551 85.1156 49.6936C85.6333 51.7322 86.507 53.5442 87.7042 55.1298C88.9015 56.7153 90.4546 58.0096 92.3961 59.0127C94.3052 60.0158 96.6673 60.5335 99.4501 60.5335C100.906 60.5335 102.265 60.3394 103.592 59.9511C104.886 59.5628 106.083 59.0774 107.184 58.4303C108.284 57.8155 109.222 57.1036 110.031 56.2623C110.84 55.421 111.487 54.515 112.005 53.5766H112.167L112.976 59.3363H125.369V17.6917H111.649Z" fill="black"/>
<path d="M175.814 27.3343C175.296 25.2958 174.422 23.4837 173.225 21.8982C172.028 20.3127 170.475 19.0184 168.533 18.0153C166.624 17.0122 164.262 16.4944 161.479 16.4944C160.023 16.4944 158.664 16.6886 157.338 17.0769C156.043 17.4652 154.846 17.9829 153.746 18.5977C152.646 19.2125 151.707 19.9244 150.898 20.7657C150.089 21.607 149.442 22.4806 148.924 23.4514H148.763L147.954 17.6917H135.528V59.3039H149.248V36.0062C149.248 34.7443 149.377 33.1911 149.928 31.9615C150.995 29.6641 153.325 28.0786 156.043 28.0786C158.761 28.0786 161.123 29.6965 162.191 32.0262C162.677 33.1911 162.806 34.6472 162.806 35.8768V59.3039H176.59V33.547C176.59 31.4438 176.332 29.3405 175.781 27.3343H175.814Z" fill="black"/>
<path d="M27.9718 16.4945C27.9718 16.4945 26.6128 16.3974 24.6713 16.7533C16.4524 18.0153 13.8962 23.7426 13.8962 23.7426H13.7344L12.6666 17.7241H0.5V59.3039H14.2197V39.242C14.2197 37.7536 14.4462 36.621 14.6404 36.0062C14.7051 35.8444 14.7375 35.6827 14.8022 35.5532C14.8345 35.4562 14.8669 35.3914 14.8669 35.3914C17.5849 29.2758 28.0042 29.7935 28.0042 29.7935V16.5268L27.9718 16.4945Z" fill="black"/>
<path d="M216.976 0.412537V22.1247H216.814C215.649 20.7333 213.999 19.439 211.896 18.2741C209.793 17.1092 207.204 16.5267 204.13 16.5267C201.056 16.5267 198.403 17.1092 195.976 18.2741C193.549 19.439 191.478 21.0245 189.795 23.0307C188.08 25.0369 186.786 27.3666 185.88 30.02C184.974 32.6733 184.489 35.4237 184.489 38.3359C184.489 41.2481 184.942 44.0309 185.815 46.6843C186.689 49.37 187.983 51.6997 189.698 53.7383C191.381 55.7768 193.484 57.3947 195.911 58.6243C198.37 59.8539 201.153 60.4687 204.259 60.4687C207.042 60.4687 209.663 59.8863 212.155 58.7537C214.646 57.6212 216.555 55.971 217.882 53.8677H218.044L218.756 59.3038H230.663V0.412537H216.944H216.976ZM207.01 48.561C201.541 48.561 197.141 44.0633 197.141 38.4977C197.141 32.9322 201.574 28.4344 207.01 28.4344C212.446 28.4344 216.879 32.9322 216.879 38.4977C216.879 44.0633 212.446 48.561 207.01 48.561Z" fill="black"/>
</svg>
